<?xml version="1.0" encoding="utf-8"?>
<!-- Generator: Adobe Illustrator 16.0.0, SVG Export Plug-In . SVG Version: 6.00 Build 0)  -->
<!DOCTYPE svg PUBLIC "-//W3C//DTD SVG 1.1//EN" "http://www.w3.org/Graphics/SVG/1.1/DTD/svg11.dtd">
<svg version="1.1" id="Layer_1" xmlns="http://www.w3.org/2000/svg" xmlns:xlink="http://www.w3.org/1999/xlink" x="0px" y="0px"
	 width="899.999px" height="900px" viewBox="0 0 899.999 900" enable-background="new 0 0 899.999 900" xml:space="preserve">
<g>
	<g>
		
			<line fill="none" stroke="#6C6075" stroke-width="7.834" stroke-linecap="round" stroke-linejoin="round" stroke-miterlimit="10" x1="189.325" y1="435.03" x2="189.325" y2="447.74"/>
		
			<polyline fill="none" stroke="#B0D2DD" stroke-width="7.834" stroke-linecap="round" stroke-linejoin="round" stroke-miterlimit="10" points="
			126.602,307.739 197.629,435.03 182.315,434.721 108.51,301.847 		"/>
		<path fill="#574D5E" d="M218.954,451.728c0.997,0,1.812-0.815,1.812-1.812v-12.027c0-0.996-0.815-1.812-1.812-1.812h-8.127
			c-0.997,0-1.812,0.815-1.812,1.812v12.027c0,0.996,0.815,1.812,1.812,1.812H218.954z"/>
		<path fill="#EA4444" d="M241.499,465.148h-95.228c0,0-1.182-8.992,4.265-15.004c2.733-3.021,7.132-5.282,14.182-5.282h58.333
			c6.793,0,11.11,2.261,13.844,5.282C242.341,456.146,241.499,465.148,241.499,465.148z"/>
		<path fill="#AF3C3C" d="M192.502,449.292h-41.108c-6.41,5.966-5.122,15.855-5.122,15.855h41.108
			C187.379,465.144,186.094,455.257,192.502,449.292z"/>
		<g>
			
				<line fill="none" stroke="#6C6075" stroke-width="7.834" stroke-linecap="round" stroke-linejoin="round" stroke-miterlimit="10" x1="269.77" y1="187.539" x2="249.55" y2="196.494"/>
			
				<line fill="none" stroke="#B0D2DD" stroke-width="7.834" stroke-linecap="round" stroke-linejoin="round" stroke-miterlimit="10" x1="249.801" y1="198.798" x2="124.791" y2="307.739"/>
			
				<line fill="none" stroke="#C2E9F2" stroke-width="7.834" stroke-linecap="round" stroke-linejoin="round" stroke-miterlimit="10" x1="238.528" y1="190.794" x2="108.51" y2="301.847"/>
			
				<path fill="#433B49" stroke="#6C6075" stroke-width="6.341" stroke-linecap="round" stroke-linejoin="round" stroke-miterlimit="10" d="
				M107.387,307.482c1.251,6.349,7.531,10.463,14.036,9.182c6.494-1.28,10.751-7.47,9.5-13.819
				c-1.251-6.351-7.539-10.467-14.034-9.188C110.385,294.939,106.136,301.131,107.387,307.482z"/>
			
				<path fill="#433B49" stroke="#6C6075" stroke-width="6.341" stroke-linecap="round" stroke-linejoin="round" stroke-miterlimit="10" d="
				M227.352,202.396c1.252,6.354,7.538,10.466,14.038,9.185c6.494-1.28,10.751-7.469,9.5-13.822
				c-1.251-6.352-7.54-10.466-14.033-9.187C230.356,189.853,226.1,196.045,227.352,202.396z"/>
		</g>
		<g>
			<path fill="#C63C3C" d="M269.167,194.812l-2.952,48.432c-0.121,1.989,1.298,3.021,3.153,2.293l58.335-22.883
				c1.855-0.728,2.152-2.405,0.661-3.725l-37.049-32.806"/>
			<path fill="#EA4444" d="M263.271,181.15c-2.574-6.133,0.366-13.075,6.556-15.505c6.193-2.431,13.298,0.573,15.862,6.707
				l5.796,13.823l-22.42,8.798L263.271,181.15z"/>
		</g>
		
			<line fill="none" stroke="#FFFFFF" stroke-width="4.7645" stroke-linecap="round" stroke-miterlimit="10" x1="304.261" y1="210.383" x2="287.759" y2="192.741"/>
		
			<line fill="none" stroke="#FFFFFF" stroke-width="4.7645" stroke-linecap="round" stroke-miterlimit="10" x1="314.378" y1="221.2" x2="309.395" y2="215.872"/>
		
			<line fill="none" stroke="#8C2828" stroke-width="4.7645" stroke-linecap="round" stroke-miterlimit="10" x1="268.292" y1="245.959" x2="328.972" y2="222.156"/>
	</g>
	<g>
		<path fill="#FFFFFF" d="M215.598,460.008c-0.374-2.918-1.265-6.58-3.294-10.003h10.751c4.547,0,7.821,1.167,10.01,3.569
			c1.712,1.879,2.555,4.319,2.965,6.434H215.598z"/>
	</g>
</g>
<rect x="213.404" y="360.444" transform="matrix(0.9772 -0.2121 0.2121 0.9772 -75.0307 57.6006)" fill="#B8CC27" width="35" height="36"/>
<rect x="201.404" y="317.444" transform="matrix(0.9987 0.0507 -0.0507 0.9987 17.278 -10.6609)" fill="#FFE32A" width="35" height="36"/>
<rect x="457.404" y="354.444" transform="matrix(0.9987 0.0507 -0.0507 0.9987 19.4817 -23.5848)" fill="#EF4D4D" width="35" height="36"/>
<g>
	<polygon fill="#E0B196" points="361.083,718.726 405.495,718.726 408.161,646.254 363.75,646.254 	"/>
	<rect x="352.964" y="633.592" fill="#FFC41F" width="47.899" height="66.683"/>
	<polygon fill="#E58A28" points="343.726,700.274 391.625,693.328 391.625,633.592 343.726,633.592 	"/>
	<rect x="335.005" y="640.539" fill="#347799" width="47.9" height="59.735"/>
	<rect x="325.768" y="640.539" fill="#20496B" width="47.899" height="59.735"/>
	<rect x="353.864" y="652.043" fill="#E07D46" width="53.688" height="59.735"/>
	<rect x="405.495" y="646.254" fill="#FFE9CF" width="11.123" height="72.472"/>
</g>
<g opacity="0.7">
	<path fill="#8A829E" d="M798.776,754.111c0-3.021-2.884-5.494-6.407-5.494H119.601c-3.523,0-6.407,2.473-6.407,5.494
		s2.883,5.494,6.407,5.494h672.769C795.893,759.605,798.776,757.133,798.776,754.111z"/>
</g>
<g>
	<g>
		
			<path fill="none" stroke="#918073" stroke-width="9.8071" stroke-linecap="round" stroke-linejoin="round" stroke-miterlimit="10" d="
			M451.625,546.779c0,0,0,7.709,0,17.131s8.665,17.131,19.256,17.131l39.083-0.001c10.591,0,17.932-8.563,16.313-19.028
			l-4.387-28.368c-1.618-10.466-5.554-19.028-8.746-19.028c-3.193,0-5.806,0-5.806,0"/>
	</g>
	<g>
		
			<path fill="none" stroke="#214775" stroke-width="19.6141" stroke-linecap="round" stroke-linejoin="round" stroke-miterlimit="10" d="
			M521.288,514.615h-50.407c-10.591,0-19.256,5.71-19.256,12.688c0,6.979,0,12.689,0,12.689"/>
	</g>
	<path fill="#56698F" d="M553.616,739.971c0,6.66-5.399,12.059-12.06,12.059c-6.659,0-12.059-5.398-12.059-12.059"/>
	<path fill="#56698F" d="M635.754,739.971c0,6.66-5.398,12.059-12.059,12.059s-12.06-5.398-12.06-12.059"/>
	<path fill="#56698F" d="M701.476,739.971c0,6.66-5.399,12.059-12.06,12.059s-12.059-5.398-12.059-12.059"/>
	<rect x="570.598" y="613.756" fill="#B7BEBC" width="21.723" height="79.392"/>
	<polygon fill="#7F8A99" points="570.598,614.033 570.598,644.545 592.32,637.881 592.32,614.033 	"/>
	<polygon fill="#B7BEBC" points="557.297,706.316 557.297,713.006 605.621,713.006 605.621,701.128 	"/>
	<g>
		<path fill="#3E4C60" d="M609.617,600.284c0-6.489-5.31-11.8-11.799-11.8h-32.718c-6.489,0-11.799,5.311-11.799,11.8v13.921
			c0,6.489,5.31,11.799,11.799,11.799h32.718c6.489,0,11.799-5.31,11.799-11.799V600.284z"/>
	</g>
	<g>
		<path fill="#3E4C60" d="M649.514,594.141c0-6.489-5.31-11.799-11.799-11.799H525.203c-6.489,0-11.799,5.31-11.799,11.799v8.094
			c0,6.488,5.31,11.799,11.799,11.799h112.512c6.489,0,11.799-5.311,11.799-11.799V594.141z"/>
	</g>
	<g>
		<path fill="#7AAEED" d="M705.114,588.721c0.675,6.455-4.081,11.734-10.57,11.734H553.673c-6.489,0-12.352-5.279-13.027-11.734
			l-10.844-103.58c-0.676-6.454,0.032-16.893,1.573-23.196l34.299-140.309c1.541-6.304,7.974-12.663,14.294-14.132l78.559-18.258
			c6.321-1.469,16.803-2.67,23.292-2.67h12.726c6.489,0,11.422,5.296,10.961,11.769L693.88,461.637
			c-0.461,6.473-0.285,17.05,0.391,23.504L705.114,588.721z"/>
	</g>
	<g>
		<path fill="#2E5389" d="M685.578,588.721c0.676,6.455-4.081,11.734-10.57,11.734H536.797c-6.489,0-12.352-5.279-13.027-11.734
			l-10.844-103.58c-0.676-6.454,0.045-16.889,1.601-23.189l40.485-163.921c1.556-6.3,8.139-11.455,14.628-11.455h87.093
			c6.49,0,11.94,5.308,12.113,11.794l4.346,163.242c0.173,6.486,0.867,17.075,1.543,23.529L685.578,588.721z"/>
	</g>
	<path fill="#214775" d="M628.785,519.487c1.337,13.596,1.337,23.181,24.518,23.181s34.771,0,34.771,0l-1.783,20.506l-53.938,6.687
		l-22.734-14.711l8.023-29.866L628.785,519.487z"/>
	<g>
		<path fill="#4977A5" d="M686.807,581.577c0,10.383-8.495,18.878-18.879,18.878H453.593c-10.383,0-18.878-8.495-18.878-18.878
			v-5.272c0-10.383,8.495-18.879,18.878-18.879h214.335c10.384,0,18.879,8.496,18.879,18.879V581.577z"/>
	</g>
	<path fill="#2E5389" d="M595.645,557.35c-17.175,0-29.561,34.19-29.561,34.19c11.127,0-84.042,0-84.042,0l1.533-34.19H595.645z"/>
	<g>
		<path fill="#CCB396" d="M594.438,582.758c0,9.733,7.965,17.697,17.698,17.697h63.621c9.734,0,18.121-7.953,18.638-17.673
			l0.408-7.683c0.517-9.721-7.025-17.674-16.76-17.674h-65.907c-9.733,0-17.698,7.965-17.698,17.698V582.758z"/>
	</g>
	<g>
		<path fill="#6589BD" d="M529.73,473.006c-6.486,0.22-10.684-4.793-9.328-11.139l34.974-163.753
			c1.355-6.346,7.774-11.539,14.264-11.539h105.368c6.489,0,11.422,5.296,10.961,11.769L674.72,456.348
			c-0.461,6.474-6.145,11.949-12.63,12.17L529.73,473.006z"/>
	</g>
	
		<polyline fill="none" stroke="#B7BEBC" stroke-width="11.799" stroke-linecap="round" stroke-linejoin="round" stroke-miterlimit="10" points="
		475.054,716.995 581.459,697.348 689.416,716.995 	"/>
	
		<polyline fill="none" stroke="#B7BEBC" stroke-width="11.799" stroke-linecap="round" stroke-linejoin="round" stroke-miterlimit="10" points="
		541.557,716.995 581.459,697.348 622.912,716.995 	"/>
	<path fill="#56698F" d="M487.201,739.971c0,6.66-5.399,12.059-12.06,12.059s-12.059-5.398-12.059-12.059"/>
	<g>
		<g>
			<path fill="#B7BEBC" d="M463.083,740.561c-0.978,0-1.77-0.793-1.77-1.77c0-7.625,6.203-13.829,13.828-13.829
				c7.626,0,13.829,6.204,13.829,13.829c0,0.977-0.792,1.77-1.77,1.77H463.083z"/>
			<path fill="#B7BEBC" d="M475.142,726.73c6.66,0,12.06,5.4,12.06,12.061h-24.119C463.082,732.131,468.481,726.73,475.142,726.73
				 M475.142,723.192c-8.602,0-15.599,6.997-15.599,15.599c0,1.955,1.585,3.539,3.539,3.539h24.119c1.955,0,3.539-1.584,3.539-3.539
				C490.74,730.189,483.743,723.192,475.142,723.192L475.142,723.192z"/>
		</g>
	</g>
	<g>
		<g>
			<path fill="#B7BEBC" d="M529.498,740.561c-0.978,0-1.77-0.793-1.77-1.77c0-7.625,6.203-13.829,13.829-13.829
				c7.625,0,13.828,6.204,13.828,13.829c0,0.977-0.792,1.77-1.77,1.77H529.498z"/>
			<path fill="#B7BEBC" d="M541.558,726.73c6.659,0,12.059,5.4,12.059,12.061h-24.118
				C529.498,732.131,534.896,726.73,541.558,726.73 M541.558,723.192c-8.602,0-15.6,6.997-15.6,15.599
				c0,1.955,1.585,3.539,3.54,3.539h24.118c1.955,0,3.54-1.584,3.54-3.539C557.156,730.189,550.158,723.192,541.558,723.192
				L541.558,723.192z"/>
		</g>
	</g>
	<g>
		<g>
			<path fill="#B7BEBC" d="M611.636,740.561c-0.978,0-1.77-0.793-1.77-1.77c0-7.625,6.203-13.829,13.829-13.829
				s13.829,6.204,13.829,13.829c0,0.977-0.792,1.77-1.77,1.77H611.636z"/>
			<path fill="#B7BEBC" d="M623.695,726.73c6.66,0,12.059,5.4,12.059,12.061h-24.118C611.636,732.131,617.035,726.73,623.695,726.73
				 M623.695,723.192c-8.602,0-15.599,6.997-15.599,15.599c0,1.955,1.584,3.539,3.539,3.539h24.118c1.955,0,3.54-1.584,3.54-3.539
				C639.294,730.189,632.297,723.192,623.695,723.192L623.695,723.192z"/>
		</g>
	</g>
	<g>
		<g>
			<path fill="#B7BEBC" d="M677.357,740.561c-0.978,0-1.77-0.793-1.77-1.77c0-7.625,6.203-13.829,13.828-13.829
				c7.626,0,13.829,6.204,13.829,13.829c0,0.977-0.792,1.77-1.77,1.77H677.357z"/>
			<path fill="#B7BEBC" d="M689.416,726.73c6.66,0,12.06,5.4,12.06,12.061h-24.118C677.357,732.131,682.756,726.73,689.416,726.73
				 M689.416,723.192c-8.601,0-15.599,6.997-15.599,15.599c0,1.955,1.585,3.539,3.54,3.539h24.118c1.955,0,3.54-1.584,3.54-3.539
				C705.016,730.189,698.018,723.192,689.416,723.192L689.416,723.192z"/>
		</g>
	</g>
	<g>
		<path fill="#3E4C60" d="M596.311,694.327v-27.722c0-3.245-2.654-5.9-5.899-5.9h-17.903c-3.245,0-5.9,2.655-5.9,5.9v27.722"/>
	</g>
	
		<line fill="none" stroke="#B7BEBC" stroke-width="11.799" stroke-linecap="round" stroke-linejoin="round" stroke-miterlimit="10" x1="475.142" y1="730.572" x2="475.142" y2="717.801"/>
	
		<line fill="none" stroke="#B7BEBC" stroke-width="11.799" stroke-linecap="round" stroke-linejoin="round" stroke-miterlimit="10" x1="541.557" y1="730.572" x2="541.557" y2="717.801"/>
	
		<line fill="none" stroke="#B7BEBC" stroke-width="11.799" stroke-linecap="round" stroke-linejoin="round" stroke-miterlimit="10" x1="623.695" y1="730.572" x2="623.695" y2="717.801"/>
	
		<line fill="none" stroke="#B7BEBC" stroke-width="11.799" stroke-linecap="round" stroke-linejoin="round" stroke-miterlimit="10" x1="689.416" y1="730.572" x2="689.416" y2="717.801"/>
	<path fill="#2E5389" d="M613.785,376.748c5.733,0.558,11.681,1.116,16.795,4.118c2.219,1.302,4.281,3.064,6.102,5.486
		c4.927,6.557,8.079,17.948,7.761,38.134c-0.707,44.828-2.595,85.58,7.764,103.337c5.005,8.58-7.246-8.839-20.746-9.228
		c-14.438-0.414-30.402,15.831-31.278,14.176c-1.696-3.201-5.421-48.902-5.421-48.902s-3.246-62.584,0.98-72.19
		c4.228-9.606,15.447-22.997,15.447-22.997L613.785,376.748z"/>
	<g>
		<path fill="#2E5389" d="M523.447,474.477c-6.463-0.588-10.641-6.264-9.286-12.609l34.974-163.753
			c1.355-6.346,7.774-11.539,14.264-11.539h35.975c6.489,0,11.447,5.298,11.018,11.773l-11.361,171.178
			c-0.43,6.476-6.069,11.29-12.531,10.701L523.447,474.477z"/>
	</g>
	<g>
		<path fill="#24774B" d="M463.132,689.123c-2.006,6.241-7.578,19.168-6.687,26.078c0.891,6.909,4.234,9.139,8.915,9.807
			c4.681,0.669,14.265-1.338,20.506-13.596c6.241-12.26,10.698-21.323,12.705-26.97c1.677-4.72-2.675-19.614-8.247-22.958
			c0,0-0.987,8.636-6.464,19.169c-5.795,11.145-12.036,12.036-14.488,12.036c-4.903,0-3.231-4.459-3.231-8.247
			C466.141,680.653,463.132,689.123,463.132,689.123z"/>
		<path fill="#3F2F36" d="M469.417,697.219c-5.59-0.657-7.399-4.195-5.951-8.988c1.449-4.791,1.449-25.408,1.449-25.408
			l25.632-8.023l2.537,12.42C493.084,667.219,486.417,699.219,469.417,697.219z"/>
		<path fill="#3F2F36" d="M535.927,689.666c0.892-3.121,2.675-10.104,4.012-14.116c1.337-4.013,1.337-13.225,1.337-13.225
			l25.559-9.956v8.916l-7.578,31.798l-16.049,16.347c0,0-8.47-4.756-8.32-5.201C535.035,703.782,535.927,689.666,535.927,689.666z"
			/>
		<path fill="#268E5A" d="M571.592,682.982c-1.488,3.707-5.055,15.299-9.513,25.997s-9.519,13.386-20.369,14.429
			c-10.841,1.033-15.587-5.21-14.25-12.2c1.338-6.972,10.075-29.501,12.474-35.636c-0.196,0.589-3.995,12.225-0.179,17.136
			c1.017,1.32,2.595,2.158,4.938,2.158c11.297,0,15.006-10.851,17.386-16.939c2.381-6.089,4.609-18.126,4.609-18.126
			s1.186,1.633,3.566,6.83c0.365,0.793,0.678,1.641,0.954,2.514C572.716,674.014,572.85,679.834,571.592,682.982z"/>
		<path fill="#24774B" d="M571.592,682.982c-1.488,3.707-5.055,15.299-9.513,25.997s-9.807,15.754-20.657,16.797
			c-10.841,1.034-15.299-7.578-13.962-14.568c1.338-6.972,10.075-29.501,12.474-35.636c-0.196,0.589-3.995,12.225-0.179,17.136
			c-4.19,12.634-6.429,18.155-2.354,22.229c4.458,4.459,16.048,2.672,23.18-16.051c4.61-12.089,8.47-23.314,10.628-29.742
			C572.716,674.014,572.85,679.834,571.592,682.982z"/>
		<path fill="#FFB287" d="M400.404,455.777c6-10.666,9-15,17-13s21,8.333,33.667,8.333c12.666,0,4,8.666,4,8.666L400.404,455.777z"
			/>
		<path fill="#268E5A" d="M509.773,428.562c1.455-6.404-2.828-6.088,2.807-12.941c5.635-6.854,27.965-34.716,42.707-38.25
			c14.742-3.534,2.225,34.599,2.225,34.599l-22.705,25.907L509.773,428.562z"/>
		<path fill="#24774B" d="M533.462,426.023c-1.783,7.727,2.972,19.02,3.566,9.807c0.594-9.213,4.16-29.421,6.538-34.771
			c0,0-14.563,5.35-24.072,18.129L533.462,426.023z"/>
		<path fill="#1E5435" d="M518.503,422.408c-2.511-0.502-6.764-3.85-5.979-6.36s8.202-6.244,22.136,10.472
			c10.207,12.244-10.849,24.172-18.07,1.744C515.082,423.582,518.503,422.408,518.503,422.408z"/>
		<g>
			<path fill="#FFB287" d="M417.988,465.887c35.743,6.535,67.348-0.285,84.743-11.055c10.359-6.419,18.214-13.721,24.098-20.693
				c2.024-2.398,3.816-4.752,5.395-7.025c1.159-1.667-1.766-6.178-7.382-10.164c-3.718-2.629-6.518-3.361-8.523-3.209
				c-1.926,0.134-3.139,1.07-3.735,1.881c-4.806,6.509-11.84,13.792-21.978,20.078c-18.847,11.67-43.213,16.609-72.42,14.684
				L417.988,465.887z"/>
			<path fill="#F58D6C" d="M516.317,413.74c6.009,4.743,9.2,12.954,10.511,20.399c2.024-2.398,3.816-4.752,5.395-7.025
				c1.159-1.667-1.766-6.178-7.382-10.164C521.123,414.32,518.323,413.589,516.317,413.74z"/>
		</g>
		<g>
			<g>
				<path fill="#5B2727" d="M461.561,662.845l0.123-6.946c0.497-28.92,1.117-57.912,8.402-87.822
					c3.424-14.055,10.894-24.064,22.202-29.751c8.852-4.451,18.102-5.187,25.534-5.776c3.473-0.277,7.796-0.62,9.521-1.314
					c2.388-0.96,5.288-1.808,8.961-2.881c20.918-6.115,26.903-10.256,28.545-12.376c0.477-9.571,8.387-43.185,18.076-43.185
					c9.995,0,18.098,8.104,18.098,18.098c0,30.254-36.853,67.027-54.563,72.204c-2.143,0.627-4.811,1.407-5.621,1.726
					c-6.846,2.752-13.914,3.314-20.15,3.811c-13.75,1.092-13.942,1.88-15.437,8.012c-6.331,25.994-6.888,51.341-7.379,79.879
					l-0.124,7.002C497.564,673.4,461.373,672.838,461.561,662.845z"/>
			</g>
			<g>
				<path fill="#6D3232" d="M570.043,655.162c0.201-10.728-0.383-18.361-0.949-28.178c-1.039-18.043-2.021-35.086,2.247-52.604
					c1.811-7.436,12.076-16.662,30.576-16.662c4.771,0,15.833,4.334,21.667-2.666c8.714-10.457,10.381-33.091,10.381-64.162
					c0-9.994-8.104-18.098-18.098-18.098c-9.995,0-18.099,34.104-18.099,44.098c0,7.527-1.271,10.326-1.596,10.917
					c-1.704,0.841-7.315,1.196-10.714,1.411c-14.33,0.909-41.006,2.6-49.286,36.596c-5.547,22.77-4.36,43.35-3.215,63.252
					c0.551,9.559,1.071,18.587,0.896,27.933c-0.149,7.948,17.604,9.174,27.818,6.878
					C567.976,662.459,570.005,657.184,570.043,655.162z"/>
			</g>
			<g>
				<path fill="#268E5A" d="M545.323,445.552c-0.64,13.709-2.819,38.37-5.03,58.27c-1.55,13.891-3.119,25.46-4.209,29.4
					c-0.061,0.229-0.141,0.449-0.23,0.67c0,0.01,0,0.02-0.01,0.02c-0.051-0.01-0.101-0.029-0.141-0.061
					c-5.609-1.279-11.26-2.01-18.899-1.319c0.81-2.7,1.569-5.58,2.28-8.649c1.119-4.851,2.289-11.051,3.42-17.951
					c4.229-25.689,8.06-60.919,7.979-70.709c0,0,0.2-0.06,0.57-0.15c1.09-0.28,3.61-0.88,6.229-1.2c3.391-0.42,6.96-0.4,7.92,1.35
					C545.594,435.932,545.594,439.762,545.323,445.552z"/>
				<g>
					<g>
						<path fill="#A54134" d="M532.625,299.845c-2.238,29.56,24.086,56.108,53.56,58.59s55.839-9.164,59.632-38.564l3.244-28.932
							c3.792-29.401-17.278-55.435-46.824-57.853l-10.325-0.845c-29.546-2.417-55.551,19.79-57.789,49.35L532.625,299.845z"/>
						<path fill="#3CAF78" d="M642.084,451.553c-0.19,3.989-0.48,7.989-0.86,11.979c-0.67,6.931-1.61,17.44-2.78,28.649
							c-1.97,18.83-4.57,39.631-7.59,48.74c-2.09,6.33-9.38,4.25-18.17,0.48c-6.77-2.91-14.43-6.83-21.3-8.7
							c-5.71-1.56-10.37-1.7-14.431-1.14h-0.01c-0.47,0.05-0.92,0.13-1.37,0.209c-7.63,1.361-13.26,5.08-20.27,6
							c-0.13,0.021-0.25,0.031-0.37,0.051c-0.23,0.02-0.43,0.05-0.62,0.07c-5,0.539,4.8-1.91-11.31-5.19
							c-2.73-0.55,0.13-12.3,3.31-29.59c3.66-19.979,7.729-47.38,4.07-73.47c-0.57-4.05-1.54-8.39-2.55-12.8
							c-3.45-15.04-7.41-30.79,2.26-37.89v-0.01c2.59-1.9,6.149-3.19,10.949-3.68c0.19-0.02,0.391-0.04,0.591-0.05
							c0.34-0.03,0.68-0.06,1.02-0.08l10.42-0.64l33.42-2.05c15.3,0,24.891,10.7,30.28,26.78c2.78,8.32,4.42,18.07,5.15,28.52
							C642.443,435.392,642.483,443.432,642.084,451.553z"/>
						<path fill="#268E5A" d="M617.854,478.762l-13.53,17.471l-27.37,35.33h-0.01c-0.47,0.05-0.92,0.13-1.37,0.209
							c-7.63,1.361-13.26,5.08-20.27,6c-0.13,0.021-0.25,0.031-0.37,0.051c-0.22,0.029-0.42,0.05-0.62,0.07
							c-0.91,0.109-1.58,0.16-2.13,0.17c-1.44,0.02-2.09-0.291-3.92-0.94c-1.83-0.63-4.84-1.601-11-2.89
							c-0.01-0.01-0.021-0.01-0.03-0.01c-0.39-0.08-0.8-0.17-1.22-0.25c-0.061-0.01-0.12-0.03-0.17-0.061
							c-0.051-0.01-0.101-0.029-0.141-0.061c-2.449-1.289,1.391-11.549,3.881-29.939c1.97-14.52,3.109-34.109-0.341-58.36
							c-0.54-3.78-1.189-7.67-1.96-11.68c-0.26-1.34-0.529-2.69-0.819-4.06c-2.87-13.62-3.721-30.93,3.51-42.4
							c4.08-6.49,10.74-11.12,21.069-12.15c0.19-0.02,0.391-0.04,0.591-0.05c0.34-0.03,0.68-0.06,1.02-0.08l10.42-0.64
							c1.74,5.3,2.21,19.63,8.641,19.16c13.21-0.97,18.989,1.02,20.51,15.94c2.229,21.8,2.649,38.16,2.649,38.16l10.74,0.04
							L617.854,478.762z"/>
						<path fill="#FFB287" d="M629.688,324.501c-0.666,5.468,3.23,10.439,8.698,11.103l0,0c5.47,0.664,10.44-3.23,11.104-8.699
							l1.021-8.4c0.664-5.47-3.23-10.44-8.7-11.104l0,0c-5.469-0.664-10.439,3.231-11.105,8.7L629.688,324.501z"/>
						<path fill="#FFFFFF" d="M606.501,372.437c0.662,10.756-14.028,20.555-24.784,21.217l-2.872,0.177
							c-10.755,0.663-15.525-7.937-16.188-18.692L606.501,372.437z"/>
						<path fill="#FFB287" d="M567.678,373.706c0.496,8.05,2.27,13.763,10.73,13.241l2.896-0.178
							c8.461-0.521,20.533-7.087,20.037-15.137l-0.693-11.243c-0.496-8.05-7.824-14.209-16.285-13.688l-2.896,0.178
							c-8.461,0.521-14.978,7.534-14.481,15.583L567.678,373.706z"/>
						<path fill="#F58D6C" d="M600.867,363.927c0.297,4.832-11.549,11.447-17.72,12.268s-15.215,1.638-15.555-3.875l-1.719-27.896
							l33.517-4.459L600.867,363.927z"/>
						<path fill="#FFB287" d="M537.877,319.863c-1.107,26.851,13.267,43.747,39.952,45.935
							c26.686,2.188,58.403-18.835,61.685-45.508l2.291-15.995c3.282-26.672-15.611-44.729-42.396-46.926l-24.147-1.98
							c-26.783-2.197-35.287,13.613-36.395,40.465L537.877,319.863z"/>
					</g>
					
						<circle opacity="0" fill="#FFFFFF" stroke="#FFFFFF" stroke-width="0.81" stroke-miterlimit="10" cx="597.552" cy="305.62" r="7.149"/>
					<g>
						<path fill="#422B27" d="M599.665,309.758c-0.095,0-0.19-0.004-0.286-0.011c-0.92-0.076-1.753-0.504-2.35-1.207
							c-0.597-0.703-0.883-1.596-0.807-2.514c0.145-1.777,1.653-3.168,3.435-3.168c0.095,0,0.19,0.003,0.286,0.011
							c1.895,0.156,3.312,1.825,3.156,3.721C602.953,308.367,601.444,309.758,599.665,309.758L599.665,309.758z"/>
						<path fill="#422B27" d="M599.656,303.17c0.086,0,0.173,0.003,0.261,0.01c1.728,0.142,3.013,1.657,2.871,3.384
							c-0.134,1.64-1.507,2.882-3.124,2.882c-0.086,0-0.173-0.003-0.261-0.011c-1.727-0.142-3.013-1.657-2.871-3.384
							C596.667,304.412,598.04,303.17,599.656,303.17L599.656,303.17z M599.656,302.546c-1.941,0-3.586,1.518-3.746,3.455
							c-0.169,2.067,1.376,3.888,3.442,4.057c0.104,0.009,0.209,0.013,0.312,0.013c1.941,0,3.587-1.518,3.746-3.456
							c0.082-1.001-0.23-1.974-0.881-2.741c-0.65-0.766-1.56-1.233-2.562-1.316C599.863,302.55,599.76,302.546,599.656,302.546
							L599.656,302.546z"/>
					</g>
					<g opacity="0">
						<circle fill="#FFFFFF" cx="596.311" cy="304.92" r="1.385"/>
					</g>
					<path fill="#A54134" d="M619.273,266.771c-8.063-0.662-42.586-3.492-57.808-4.741c-6.323-0.518-11.86-1.08-15.253-4.765
						c-10.945-11.889-6.963-33.281-6.963-33.281s4.664,4.323,30.852,6.471c27.377,2.245,49.209,0.095,67.007,22.038
						C641.55,257.969,619.273,266.771,619.273,266.771z"/>
					<path fill="#A54134" d="M598.507,259.818c-0.337,4.107-5.014,4.703,3.866,5.432c9.124,0.748,23.122,6.297,21.494,26.143
						c-0.676,8.253-1.346,16.411-1.646,20.07c-0.297,3.622,6.862,5.976,9.173,0.833c3.066-6.827,9.905-4.944,10.417-4.896
						c3.794,0.363,3.718-30.091,1.949-32.797c-1.769-2.706-10.055-14.716-12.722-16.738s-23.157-10.708-23.157-10.708
						s-6.922-2.832-9.722,0.544S598.507,259.818,598.507,259.818z"/>
					<g>
						<path fill="#8E3925" d="M607.109,296.628c-0.512,0-1.018-0.222-1.364-0.65c-2.427-3.002-5.263-3.999-9.778-3.434
							c-0.957,0.12-1.834-0.561-1.955-1.521c-0.119-0.96,0.562-1.835,1.521-1.956c5.731-0.715,9.725,0.735,12.937,4.707
							c0.608,0.752,0.491,1.855-0.261,2.463C607.885,296.501,607.495,296.628,607.109,296.628z"/>
					</g>
					<g>
						<path fill="#8E3925" d="M546.867,292.687c-0.324,0-0.651-0.089-0.944-0.277c-0.814-0.521-1.052-1.604-0.529-2.419
							c2.9-4.529,9.23-4.802,13.882-3.136c0.911,0.326,1.386,1.329,1.06,2.239c-0.329,0.911-1.329,1.384-2.239,1.059
							c-3.498-1.252-7.969-1.06-9.753,1.727C548.009,292.402,547.443,292.687,546.867,292.687z"/>
					</g>
					<g>
						<path fill="#FFB287" d="M551.261,317.397c-0.009,5.509-4.485,9.966-9.993,9.955l0,0c-5.509-0.011-9.966-4.483-9.955-9.993
							l0.015-8.463c0.01-5.509,4.484-9.965,9.993-9.955l0,0c5.51,0.011,9.966,4.485,9.957,9.994L551.261,317.397z"/>
					</g>
				</g>
				<path fill="#268E5A" d="M575.576,531.77c4.391-0.783,9.446-0.807,15.81,0.934c6.866,1.867,14.525,5.791,21.298,8.698
					c18.752-19.931,21.483-91.386,21.483-91.386l-3.315,8.757c0,0-26.394,11.983-26.172,13.28
					C604.854,473.115,585.945,525.148,575.576,531.77z"/>
				<path fill="#24774B" d="M638.443,492.182c-1.97,18.83-4.57,39.631-7.59,48.74c-2.09,6.33-9.38,4.25-18.17,0.48
					c-6.77-2.91-14.43-6.83-21.3-8.7c-5.71-1.56-10.37-1.7-14.431-1.14h-0.01c-0.47,0.05-0.92,0.13-1.37,0.209
					c-7.63,1.361-13.26,5.08-20.27,6c-0.13,0.021-0.25,0.031-0.37,0.051c-0.22,0.029-0.42,0.05-0.62,0.07
					c-0.91,0.109-1.58,0.16-2.13,0.17c-1.44,0.02-2.09-0.291-3.92-0.94c-1.83-0.63-4.84-1.601-11-2.89
					c-0.01-0.01-0.021-0.01-0.03-0.01c-0.39-0.08-0.8-0.17-1.22-0.25c-0.061-0.01-0.12-0.03-0.17-0.061
					c-0.051-0.01-0.101-0.029-0.141-0.061c-5.609-1.279-11.26-2.01-18.899-1.319c0.81-2.7,1.569-5.58,2.28-8.649
					c1.119-4.851,2.289-11.051,3.42-17.951l17.08-2.02l0.709-0.09l6.021-0.71l58.01-6.88L638.443,492.182z"/>
			</g>
			<path fill="#A54134" d="M636.568,248.158c1.814-5.59-7.22-18.252-7.22-18.252s-6.131,8.292-3.999,13.173
				C627.481,247.961,634.754,253.749,636.568,248.158z"/>
			<path fill="#A54134" d="M635.26,246.64c6.728-2.699,19.548,9.472,19.548,9.472s-9.665,4.366-16.453,0.871
				C633.342,254.402,629.486,248.957,635.26,246.64z"/>
			<path fill="#422B27" d="M556.265,306.199c-0.095,0-0.19-0.003-0.286-0.011c-0.919-0.075-1.752-0.504-2.349-1.207
				s-0.883-1.596-0.808-2.515c0.145-1.776,1.654-3.168,3.435-3.168c0.095,0,0.19,0.004,0.286,0.012
				c1.896,0.155,3.313,1.824,3.156,3.72C559.554,304.808,558.045,306.199,556.265,306.199L556.265,306.199z"/>
			<path fill="#8E2B30" d="M596.735,332.048c0,0-7.376,17.712-25.268,16.383c-19.789-1.47-18.084-19.603-18.084-19.603
				L596.735,332.048L596.735,332.048z"/>
			<g>
				<path fill="#F58D6C" d="M569.843,321.849c-4.844-0.391-8.739-3.464-8.296-6.237c0.16-1.01,1.274-2.151,3.1-1.102
					c0.838,0.481,3.152,1.154,5.656,1.344c2.503,0.189,3.9-0.203,5.349-0.511c3.156-0.672,4.028,0.62,4.023,1.642
					C579.66,319.789,574.69,322.192,569.843,321.849z"/>
			</g>
			<path fill="#D85365" d="M561.27,345.249c5.486-5.721,18.164-4.491,28.033-3.049c-4.07,3.682-9.923,6.818-17.835,6.231
				c-4.411-0.328-7.749-1.486-10.281-3.084C561.216,345.314,561.238,345.281,561.27,345.249z"/>
			<path fill="#FFFFFF" d="M596.632,332.28c-0.289,0.629-1.196,2.47-2.797,4.589c0,0,1.329-1.591,0.615-1.435
				c0,0-33.882,1.441-38.198-3.732l-1.036-2.738l41.52,3.083L596.632,332.28z"/>
			<path fill="#F58D6C" d="M636.439,318.938c0.252-2.156,2.2-3.699,4.354-3.449c0.134,0.016,0.258,0.057,0.387,0.085
				c0.385-0.074,0.781-0.109,1.191-0.061c2.153,0.25,3.7,2.202,3.449,4.358l-0.608,5.088c-0.253,2.157-2.203,3.699-4.359,3.448
				c-0.133-0.016-0.257-0.056-0.386-0.084c-0.385,0.074-0.781,0.109-1.191,0.062c-2.151-0.25-3.697-2.2-3.445-4.357L636.439,318.938
				z"/>
			<path fill="#268E5A" d="M550.094,378.941c-15.232,8.038-19.996,24.914-19.437,53.21l1.834,13.404h13.636L550.094,378.941z"/>
		</g>
		<path fill="#268E5A" d="M617.409,445.209c5.628-12.348,6.48-20.215,7.509-25.611l-8.563,16.938l-15.043-12.442l-1.489,0.977
			l-1.437,1.416c-0.295,6.472-0.763,17.358-1.063,25.875c-0.054,1.502,3.869,2.115,6.762,2.15
			C609.214,454.571,614.908,450.699,617.409,445.209z"/>
		<path fill="#3CAF78" d="M617.733,388.427c-6.642-3.892-7.593,0.989-25.108,26.623c0,0,3.567,6.253,3.926,6.44
			c0.359,0.188,10.43,4.777,10.43,4.777l14.036-23.939L617.733,388.427z"/>
		<path fill="#1E5435" d="M598.261,422.408c-2.51-0.502-6.764-3.85-5.978-6.36c0.785-2.51,8.201-6.244,22.136,10.472
			c10.206,12.244-10.849,24.172-18.07,1.744C594.841,423.582,598.261,422.408,598.261,422.408z"/>
		<g>
			<path fill="#FFB287" d="M497.934,465.887c35.751,6.535,67.356-0.285,84.751-11.055c10.243-6.348,18.036-13.551,23.902-20.461
				c2.095-2.479,3.949-4.913,5.581-7.257c1.168-1.667-1.756-6.178-7.373-10.164c-1.667-1.177-3.147-1.979-4.458-2.479
				c-4.396-1.711-6.855-0.142-7.801,1.15c-4.806,6.509-11.84,13.792-21.977,20.078c-18.856,11.67-43.214,16.609-72.421,14.684
				L497.934,465.887z"/>
			<path fill="#F58D6C" d="M604.795,416.95c-1.667-1.177-3.147-1.979-4.458-2.479c0.544,0.491,1.133,1.07,1.774,1.748
				c4.734,4.975,5.421,12.963,4.476,18.152c2.095-2.479,3.949-4.913,5.581-7.257C613.336,425.447,610.412,420.936,604.795,416.95z"
				/>
		</g>
		<path fill="#6D3232" d="M546.917,580.385c-3.167-14.666-4.667-34.5,6.167-42.166c10.833-7.666,25-11.5,47.666-2
			c22.667,9.5-34.166,14.334-34.833,14.834S546.917,580.385,546.917,580.385z"/>
	</g>
</g>
<g>
	<polygon fill="#6D4739" points="591.402,549.521 591.404,549.52 591.4,549.523 	"/>
</g>
<g>
	<path fill="#FF9676" d="M563.463,472.311c23.79,0.894,45.185,8.486,47.791,10.733c0.967,0.664,1.244,0.955,1.242,1.845
		c0.036-1.566,0.083-3.199,0.145-4.92c-5.719-3.678-25.709-9.642-46.568-10.852c-1.57,1.387-2.479,2.144-2.479,2.144
		C563.541,471.651,563.499,472.002,563.463,472.311z"/>
</g>
<path opacity="0.5" fill="#A2A2C9" d="M520.486,476.507c1.683-0.417,3.585-0.833,5.736-1.229c6.479-1.201,15.212-2.277,26.85-2.898
	c3.479-0.187,6.961-0.199,10.391-0.068c0.036-0.309,0.078-0.659,0.131-1.05c0,0,0.908-0.757,2.479-2.144
	c-4.398-0.26-8.833-0.304-13.179-0.071c-8.651,0.463-17.854,1.362-25.822,2.731c-2.278,0.395-4.447,0.825-6.481,1.295
	C520.558,474.09,520.52,475.248,520.486,476.507z"/>
<g>
	<path fill="#CC2B33" d="M612.28,490.876c-0.079-1.388-0.123-2.768-0.148-4.141l0.079-0.026c-0.004,1.634,0.047,3.291,0.123,4.953
		C612.317,491.4,612.295,491.137,612.28,490.876z"/>
	<path fill="#CC2B33" d="M574.039,497.373c-0.002-0.031-0.001-0.059-0.002-0.09c0.201-0.211,0.363-0.429,0.47-0.657
		c-0.023,0.057-0.112,0.288-0.197,0.657L574.039,497.373z"/>
</g>
<path fill="#4977A5" d="M609.035,557.515c-18.048,0-29.4,5.239-34.932,19.503c-5.53,14.264,2.038,14.555,2.038,14.555
	s23.287-3.203,26.198-3.493c2.911-0.292,12.808-5.239,12.808-5.239L609.035,557.515z"/>
<g>
	<path fill="#7AAEED" d="M594.438,582.758c0,9.733,7.965,17.697,17.698,17.697h63.621c9.734,0,18.121-7.953,18.638-17.673
		l0.408-7.683c0.517-9.721-7.025-17.674-16.76-17.674h-65.907c-9.733,0-17.698,7.965-17.698,17.698V582.758z"/>
</g>
<g>
	<g>
		
			<path fill="none" stroke="#2E5389" stroke-width="9.8071" stroke-linecap="round" stroke-linejoin="round" stroke-miterlimit="10" d="
			M608.096,523.797v39.709c0,11.279,9.228,20.506,20.506,20.506h35.691c11.277,0,19.018-9.106,17.199-20.236l-3.657-22.386
			c-1.819-11.13-5.919-20.237-9.111-20.237s-5.805,0-5.805,0"/>
	</g>
	
		<path fill="none" stroke="#CCDDD8" stroke-width="9.8071" stroke-linecap="round" stroke-linejoin="round" stroke-miterlimit="10" d="
		M688.989,562.012c1.617,10.466-5.724,19.028-16.313,19.028h-39.083c-10.591,0-19.256-7.708-19.256-17.13v-8.984"/>
	
		<path fill="none" stroke="#E1EFEA" stroke-width="9.8071" stroke-linecap="round" stroke-linejoin="round" stroke-miterlimit="10" d="
		M688.989,562.012l-4.387-28.368c-0.223-1.44-0.489-2.845-0.791-4.194"/>
	
		<path fill="none" stroke="#7F8A99" stroke-width="9.8071" stroke-linecap="round" stroke-linejoin="round" stroke-miterlimit="10" d="
		M683.812,529.449c-1.896-8.466-5.202-14.835-7.956-14.835c-3.192,0-5.805,0-5.805,0"/>
	
		<path fill="none" stroke="#7F8A99" stroke-width="9.8071" stroke-linecap="round" stroke-linejoin="round" stroke-miterlimit="10" d="
		M614.337,546.779c0,0,0-1.275,0,8.146"/>
	<g>
		
			<path fill="none" stroke="#7AAEED" stroke-width="19.6141" stroke-linecap="round" stroke-linejoin="round" stroke-miterlimit="10" d="
			M681.325,514.614h-47.733c-10.59,0-19.255,6.837-19.255,15.19c0,8.355,0,15.19,0,15.19"/>
	</g>
	<g>
		
			<path fill="none" stroke="#2E5389" stroke-width="19.6141" stroke-linecap="round" stroke-linejoin="round" stroke-miterlimit="10" d="
			M674.449,502.133h-47.733c-10.591,0-19.255,8.665-19.255,19.256v23.606"/>
	</g>
</g>
<g>
	<path fill="#404963" d="M273.706,741.154c0,6.006-4.869,10.875-10.876,10.875c-6.006,0-10.875-4.869-10.875-10.875"/>
</g>
<g>
	<path fill="#404963" d="M189.548,741.154c0,6.006-4.87,10.875-10.876,10.875s-10.876-4.869-10.876-10.875"/>
</g>
<g>
	<path fill="#56698F" d="M361.179,741.154c0,6.006-4.87,10.875-10.876,10.875c-6.007,0-10.876-4.869-10.876-10.875"/>
</g>
<g>
	<path fill="#56698F" d="M291.856,741.154c0,6.006-4.869,10.875-10.875,10.875c-6.007,0-10.876-4.869-10.876-10.875"/>
</g>
<rect x="725.008" y="473.18" fill="#934631" width="20.434" height="279.99"/>
<rect x="651.734" y="473.18" fill="#934631" width="20.425" height="279.992"/>
<rect x="662.434" y="473.182" fill="#D36F54" width="9.73" height="279.99"/>
<polygon fill="#7A392A" points="672.164,606.932 672.164,753.172 651.584,753.172 651.584,616.053 "/>
<rect x="203.002" y="473.18" fill="#934631" width="20.433" height="279.99"/>
<rect x="130.788" y="473.18" fill="#934631" width="20.434" height="279.99"/>
<rect x="161.634" y="528.355" fill="#E0B196" width="206.222" height="208.852"/>
<rect x="281.985" y="528.355" fill="#EFCBAB" width="85.871" height="208.852"/>
<g>
	<path fill="#43535B" d="M527.99,465.336c1.651,0.597,1.566,1.084-0.189,1.084H382.664c-1.756,0-3.192-1.436-3.192-3.191v-4.273
		c0-1.756,1.437-3.192,3.192-3.192h115.617c1.756,0,4.544,0.487,6.195,1.084L527.99,465.336z"/>
</g>
<g>
	<path fill="#61778C" d="M535.25,463.229c0,1.756-1.438,3.191-3.193,3.191h-30.424c-1.756,0-3.191-1.436-3.191-3.191v-4.273
		c0-1.756,1.434-3.109,3.187-3.008l30.435,1.76c1.753,0.102,3.188,1.621,3.188,3.377V463.229z"/>
</g>
<polygon fill="#EFCBAB" points="281.99,677.865 281.99,737.211 367.854,737.211 367.854,654.902 "/>
<rect x="129.708" y="473.271" fill="#E0B196" width="616.216" height="39.03"/>
<rect x="670.727" y="491.837" fill="#FFE9CF" width="75.229" height="20.595"/>
<rect x="129.708" y="472.262" fill="#96725E" width="541.916" height="19.575"/>
<g>
	<g>
		
			<line fill="none" stroke="#5B2727" stroke-width="5.9037" stroke-linecap="round" stroke-linejoin="round" stroke-miterlimit="10" x1="542.981" y1="396.794" x2="534.021" y2="438.042"/>
		
			<line fill="none" stroke="#37BCF7" stroke-width="5.9037" stroke-linecap="round" stroke-linejoin="round" stroke-miterlimit="10" x1="505.084" y1="395.885" x2="513.417" y2="443.219"/>
		<g>
			<path fill="#FF506E" d="M522.896,440.497c0.146,0.018,0.286,0.03,0.427,0.03c1.831,0,3.418-1.379,3.632-3.247l2.85-24.608
				l0.379-3.278l0.732-6.298c0.231-2.008-1.209-3.827-3.217-4.059c-2.008-0.232-3.826,1.208-4.059,3.216l-0.769,6.628l-0.373,3.21
				l-2.819,24.346C519.447,438.453,520.887,440.265,522.896,440.497z"/>
		</g>
		<path fill="#CFF8FF" d="M527.26,410.628c-1.563-0.326-3.242-0.281-4.645,0.376l0.271-2.335c1.389-0.679,3.07-0.728,4.629-0.401
			c1.146,0.241,1.985,0.595,2.668,1.127l-0.271,2.337C529.228,411.216,528.391,410.866,527.26,410.628z"/>
		<path fill="#CFF8FF" d="M519.96,422.714c-0.357,0.246,0.455-2.876,0.583-3.441c0.476-2.097,0.697-4.226,0.934-6.359
			c0.27-2.421,0.01-6.09,1.301-8.274c0.799-1.354,2.91-0.127,2.107,1.232c-0.689,1.168-0.56,3.382-0.705,4.688
			c-0.229,2.063-0.371,4.16-0.697,6.21c-0.338,2.126-0.822,4.213-1.322,6.307c-0.194,0.811-0.263,1.26-0.968,1.747
			C519.893,425.719,518.673,423.602,519.96,422.714z"/>
	</g>
	<rect x="501.834" y="420.802" fill="#FFE32A" width="39.51" height="49.709"/>
	<rect x="501.834" y="420.802" fill="#FFAE2C" width="19.51" height="49.709"/>
	<rect x="498.173" y="420.802" fill="#FFE32A" width="46.321" height="10.454"/>
	<rect x="501.834" y="431.302" fill="#E58741" width="39.51" height="5.23"/>
	<rect x="498.173" y="420.802" fill="#FFAE2C" width="25.911" height="10.454"/>
	<rect x="534.173" y="420.802" fill="#FFFFFF" width="5.911" height="10.454"/>
</g>
<rect x="103.864" y="463.232" fill="#E0B196" width="580.638" height="20.59"/>
<rect x="681.644" y="463.228" fill="#FFE9CF" width="96.513" height="20.593"/>
<rect x="161.636" y="729.763" fill="#D36F54" width="206.218" height="11.705"/>
<rect x="161.634" y="729.758" opacity="0.68" fill="#8E7262" width="120.351" height="11.705"/>
<path fill="none" stroke="#43535B" stroke-width="5.3206" stroke-miterlimit="10" d="M267.551,434.432
	c-0.233,15.84-1.924,26.203-13.693,26.203c-7.051,0-14.874,0-20.568,0c-2.188,0-2.702,0.898-2.805,2.594
	c-1.751,28.912,0.349,270.746,0.349,270.746c0,11.754-0.624,27.709-21.895,27.709S0,761.684,0,761.684"/>
<path fill="none" stroke="#303E44" stroke-width="5.3206" stroke-miterlimit="10" d="M267.585,423.792
	c0,3.757,0.015,7.319-0.034,10.64"/>
<polygon fill="#934631" points="672.322,512.207 651.52,512.207 651.52,525.877 661.921,519.041 672.322,519.041 "/>
<g>
	<g>
		<path fill="#61778C" d="M243.905,417.459c0.081,3.499,11.892,6.333,15.391,6.333H469c3.488,0,6.266-2.833,6.186-6.333
			l-3.457-150.191c-0.08-3.493-2.988-6.331-6.477-6.331h-218.62c-3.5,0-6.264,2.838-6.184,6.331L243.905,417.459z"/>
		<path fill="#43535B" d="M463.696,417.458c0.089,3.504-2.692,6.33-6.179,6.33H238.9c-3.504,0-6.401-2.826-6.481-6.33l-3.45-150.19
			c-0.089-3.496,2.684-6.33,6.178-6.33h218.618c3.495,0,6.401,2.834,6.481,6.33L463.696,417.458z"/>
		<path opacity="0.7" fill="#A0A6BA" d="M384.5,423.645c0,0-0.348,0.045-0.981,0.143h-69.436
			c8.782-19.676,45.863-63.986,47.236-64.334c1.783-0.445,11.929-0.445,11.929-0.445L384.5,423.645z"/>
	</g>
	<g>
		<path fill="#61778C" d="M368.514,352.675h-31.35c-3.5,0-7.06,2.839-7.939,6.33l-9.12,36.72l-14.23,58.58
			c-0.34,1.359-0.229,2.63,0.25,3.66c0.73,1.619,2.351,2.67,4.48,2.67h31.37c3.479,0,7.05-2.83,7.93-6.33l5.68-23.4l1.73-7.121
			l15.93-64.78C374.134,355.514,372.014,352.675,368.514,352.675z M311.934,434.575l3.8-14.63c0.58-2.31,2.93-4.2,5.25-4.2h20.78
			c2.32,0,3.72,1.89,3.14,4.2l-3.8,14.63c-0.59,2.32-2.94,4.189-5.26,4.189h-20.78C312.744,438.764,311.344,436.895,311.934,434.575
			z"/>
		<polygon fill="#61778C" points="369.404,360.611 372.071,354.111 368.737,346.778 349.904,345.444 361.237,360.111 		"/>
		<path fill="#506175" d="M364.225,344.144h-31.36c-3.5,0-7.05,2.84-7.93,6.331l-24.57,101.149c-0.89,3.5,1.23,6.341,4.73,6.341
			h31.36c3.49,0,7.05-2.841,7.93-6.341l24.04-98.949l0.53-2.2C369.844,346.984,367.714,344.144,364.225,344.144z M344.904,419.944
			l-3.8,14.63c-0.59,2.32-2.94,4.189-5.26,4.189h-20.78c-2.32,0-3.72-1.87-3.13-4.189l3.8-14.63c0.58-2.31,2.93-4.2,5.25-4.2h20.78
			C344.084,415.745,345.484,417.635,344.904,419.944z"/>
	</g>
	<g>
		<path fill="#506175" d="M392.161,460.035c0,1.756-1.437,3.192-3.192,3.192h-99.281c-1.756,0-3.192-1.437-3.192-3.192v-4.272
			c0-1.757,1.437-3.192,3.192-3.192h99.281c1.756,0,3.192,1.436,3.192,3.192V460.035z"/>
	</g>
	<g>
		<path fill="#61778C" d="M396.418,460.035c0,1.756-1.437,3.192-3.192,3.192h-30.424c-1.756,0-3.192-1.437-3.192-3.192v-4.272
			c0-1.757,1.437-3.192,3.192-3.192h30.424c1.756,0,3.192,1.436,3.192,3.192V460.035z"/>
	</g>
</g>
<path fill="#BFCBD1" d="M319.158,432.82c-0.107,0.178-0.17,0.24-0.188,0.187C318.953,432.953,319.016,432.9,319.158,432.82z"/>
<polygon fill="#FF4A42" points="757.734,435.735 757.734,463.615 623.393,463.615 623.393,457.322 627.013,457.322 627.013,442.029 
	623.393,442.029 623.393,435.735 "/>
<polygon fill="#E63C3D" points="687.377,435.735 687.377,463.615 623.393,463.615 623.393,457.322 627.013,457.322 627.013,442.029 
	623.393,442.029 623.393,435.735 "/>
<rect x="625.959" y="442.031" fill="#D1E0E5" width="54.536" height="15.29"/>
<path fill="#334251" d="M317.93,437.571l3.8-14.627c0.584-2.314,2.935-4.196,5.254-4.196h18.027c-0.083-1.729-1.35-3-3.244-3
	h-20.784c-2.319,0-4.67,1.881-5.254,4.196l-3.8,14.627c-0.585,2.318,0.816,4.196,3.135,4.196h2.756
	C317.804,438.386,317.824,437.99,317.93,437.571z"/>
<path fill="#492323" d="M552.184,538.063c-1.44,0.02-2.09-0.291-3.92-0.94C549.514,537.442,550.813,537.752,552.184,538.063z"/>
<g>
	<g>
		<g>
			<g>
				<path fill="#F18930" d="M798.31,622.108"/>
				<g>
					<path fill="#E83434" d="M689.041,753.52h92.154c9.996,0,13.82-6.547,13.82-16.456v-99.755c0-3.105-2.865-5.616-6.393-5.616
						h-77.375c-3.527,0-6.383,2.511-6.383,5.616l-1.937,27.076l-5.703,79.713C697.226,747.193,685.514,753.52,689.041,753.52z"/>
					<path fill="#912626" d="M708.339,657.676h80.954c3.161,0,5.723-2.563,5.723-5.724V630.6c0-3.105-2.865-5.617-6.393-5.617
						h-77.375c-3.527,0-6.383,2.512-6.383,5.617v23.602C704.865,656.12,706.42,657.676,708.339,657.676z"/>
					<g>
						<path fill="#912626" d="M741.634,652.244c0,0,0,3.738,0,8.307s3.738,8.307,8.307,8.307s8.307-3.738,8.307-8.307
							s0-8.307,0-8.307"/>
					</g>
					<polygon fill="#912626" points="713.182,692.766 700.83,708.473 689.044,753.52 714.68,753.52 721.225,722.689 					"/>
					<path fill="#B8CC27" d="M669.134,612.494v34.457c0,3.096,2.866,3.615,6.393,3.615h119.27c3.527,0,6.393-0.52,6.393-3.615
						v-15.259c0-0.729-0.029-1.438-0.086-2.128c-1.975-24.498-38.099-22.687-38.099-22.687h-87.478
						C672,606.878,669.134,609.389,669.134,612.494z"/>
					<path fill="#85A520" d="M711.216,649.691h83.58c3.527,0,6.393-2.521,6.393-5.616v2.876c0,3.096-2.865,5.615-6.393,5.615h-83.58
						c-3.526,0-6.393-2.52-6.393-5.615v-2.876C704.823,647.171,707.689,649.691,711.216,649.691z"/>
					<path fill="#D5E22B" d="M669.134,612.628v16.937h131.969c-0.671-8.311-5.263-13.592-11.042-16.937H669.134z"/>
					<path fill="#912626" d="M713.849,652.564c-5.511,0-8.945-2.316-8.945-9.266s-13.658,10.543-13.658,10.543l13.179,1.917
						l8.626-0.72L713.849,652.564z"/>
					<path fill="#B23232" d="M704.864,645.135v91.779c0,7.66-2,16.609-14.37,16.609h-11.271c-0.52,0-1.01-0.02-1.489-0.068
						c-9.73-0.791-11.061-9.511-11.061-15.911v-122.88c0-3.08,2.8-5.569,6.23-5.609c0.229-0.011,0.46,0,0.699,0.02
						c10.37,0.83,27.6,4.852,29.73,21.561C703.464,631.665,704.864,644.006,704.864,645.135z"/>
					<path fill="#912626" d="M689.634,753.455h-11.899c-9.73-0.791-11.061-9.511-11.061-15.911v-31.47
						c6.74-1.149,15.24-0.09,15.54-0.09c0.68,0,16.88,16.8,16.88,16.8C699.094,736.354,700.214,753.455,689.634,753.455z"/>
				</g>
				<g>
					<path fill="#E83434" d="M805.773,709.725v32.35c0,1.21-0.069,2.48-0.289,3.699c-0.721,4.091-3.04,7.75-9.61,7.75h-76.83
						l-0.67-7.75l-2.82-32.51l-1.79-20.5h70.48C791.824,693.375,805.773,696.324,805.773,709.725z"/>
					<path fill="#242D38" d="M805.484,745.773c-0.721,4.091-3.04,7.75-9.61,7.75h-76.83l-0.67-7.75H805.484z"/>
					<path fill="#B8CC27" d="M713.965,695.547l12.066,20.094c0.096,1.361,1.229,2.416,2.594,2.416h79.337c1.437,0,2.6-1.163,2.6-2.6
						v-5.729c0-13.342-13.807-16.322-21.413-16.955c-0.077-0.007-0.151-0.01-0.229-0.01h-75.15
						C712.261,692.764,713.859,694.043,713.965,695.547z"/>
					<path fill="#B23232" d="M734.709,709.729v32.348c0,5.281-1.37,11.443-9.891,11.443h-21.048c8.55,0,9.269-9.948,9.412-14.855
						c0.086-3.182,0.058-21.518,0.028-34.025c-0.01-6.795-0.028-11.875-0.028-11.875c6.508,0.527,17.702,2.77,20.75,11.875
						C734.432,706.145,734.709,707.83,734.709,709.729z"/>
				</g>
				<path fill="#76E2FF" d="M695.983,678.762v37.08c0,0.18,0,0.36-0.02,0.541c-0.13,3.56-1.63,6.76-3.98,9.109
					c-2.47,2.471-5.88,4-9.649,4c-7.36,0-13.351-5.82-13.631-13.109c-0.02-0.181-0.02-0.361-0.02-0.541v-37.08
					c0-7.539,6.11-13.649,13.65-13.649C689.873,665.112,695.983,671.223,695.983,678.762z"/>
				<rect x="676.084" y="663.553" fill="#76E2FF" width="12.5" height="12.5"/>
				<rect x="675.089" y="663.385" fill="#76E2FF" width="14.489" height="2.496"/>
				<path fill="#EF8935" d="M686.449,651.719h-8.231c-1.728,0-3.129,1.4-3.129,3.129v8.699h14.489v-8.699
					C689.578,653.119,688.177,651.719,686.449,651.719z"/>
				<path fill="#EF8935" d="M695.983,685.383v30.459c0,0.18,0,0.36-0.02,0.541h-27.261c-0.02-0.181-0.02-0.361-0.02-0.541v-30.459
					H695.983z"/>
				<polygon fill="#F7AE1E" points="695.983,685.383 695.983,709.622 679.084,706.303 689.014,685.383 				"/>
				<path opacity="0.4" fill="#766EB7" d="M677.467,716.383c-0.014-0.181-0.014-0.361-0.014-0.541v-37.08
					c0-5.285,2.177-9.857,5.356-12.126v-0.755h-0.72v-2.334v-0.162v-8.537c0-1.729,1.014-3.129,2.265-3.129h-6.137
					c-1.728,0-3.129,1.4-3.129,3.129v8.537v0.162v2.334h0.995v0.755c-4.393,2.269-7.4,6.841-7.4,12.126v37.08
					c0,0.18,0,0.36,0.02,0.541c0.28,7.289,6.271,13.109,13.631,13.109c0.997,0,1.967-0.114,2.902-0.316
					C680.911,727.883,677.643,722.687,677.467,716.383z"/>
			</g>
			<path fill="#E83434" d="M743.84,717.998c-6.549,0-9.105-1.438-9.105-6.71v20.032L743.84,717.998z"/>
			<path fill="#B23232" d="M699.329,705.156v29.307c0,5.496-1.436,11.906-10.298,11.906h-13.505c-7.949,0-8.993-6.644-8.993-11.453
				v-29.76H699.329z"/>
			<path fill="#E83434" d="M699.32,704.861v23.244c0,4.229-1.104,9.16-7.924,9.16h-2.043c-6.116,0-6.92-5.111-6.92-8.812v-23.593
				H699.32z"/>
			<polygon fill="#B23232" points="666.506,704.929 699.475,704.929 699.475,714.573 666.506,720.902 			"/>
			<rect x="666.506" y="702.818" fill="#D1DAF2" width="32.969" height="9.646"/>
			<rect x="682.541" y="702.819" fill="#E9F0FF" width="16.934" height="9.695"/>
			<path fill="#F18930" d="M744.353,652.52c0,0,0,3.028,0,7.072c0,3.834,3.354,7.006,7.591,7.323c0.23,0.019,0.47,0.028,0.71,0.028
				c0.345,0,0.689-0.02,1.025-0.058c4.092-0.45,7.284-3.556,7.284-7.294v-5.396c0-1.055,0-1.677,0-1.677H744.353z"/>
			<path fill="#DFDDDE" d="M751.954,666.535c-3.271-0.98-5.63-3.73-5.63-6.94c0-4.05,0-7.08,0-7.08h14.64c0,0,0,0.63,0,1.68v5.4
				c0,0.229-0.01,0.47-0.04,0.69c-0.02,0.229-0.06,0.459-0.109,0.68c-0.041,0.199-0.091,0.4-0.15,0.59
				c-0.061,0.189-0.13,0.38-0.21,0.57c-0.04,0.1-0.09,0.199-0.14,0.289c0,0.011,0,0.021-0.011,0.03c-0.06,0.14-0.13,0.28-0.21,0.41
				c-0.1,0.181-0.22,0.37-0.34,0.54c-0.14,0.21-0.3,0.41-0.47,0.609c-0.11,0.141-0.24,0.271-0.37,0.4
				c-0.141,0.15-0.29,0.29-0.44,0.42c-0.159,0.141-0.319,0.271-0.489,0.391c-0.03,0.029-0.051,0.05-0.08,0.06
				c-0.17,0.13-0.351,0.25-0.54,0.36c-0.03,0.02-0.05,0.04-0.08,0.06c-0.2,0.12-0.41,0.23-0.63,0.341
				c-0.11,0.049-0.221,0.1-0.33,0.14c-0.15,0.069-0.301,0.14-0.46,0.19c-0.391,0.149-0.79,0.27-1.21,0.359
				c-0.32,0.07-0.65,0.13-0.99,0.16L751.954,666.535z"/>
			<path fill="#E9F0FF" d="M751.954,666.535c0.2-9.041,5.14-11.57,9.01-12.341v5.4c0,0.229-0.01,0.46-0.04,0.69
				c0,0.069-0.01,0.14-0.03,0.219c-0.02,0.15-0.04,0.301-0.079,0.461c-0.041,0.18-0.08,0.359-0.141,0.539
				c-0.1,0.32-0.22,0.641-0.37,0.94c-0.06,0.14-0.13,0.28-0.21,0.41c-0.229,0.399-0.5,0.79-0.81,1.149
				c-0.11,0.141-0.24,0.281-0.37,0.4c-0.78,0.801-1.74,1.44-2.83,1.87c-0.07,0.04-0.15,0.07-0.22,0.091
				c-0.19,0.079-0.391,0.139-0.591,0.199c-0.159,0.051-0.319,0.09-0.489,0.13c-0.16,0.04-0.33,0.08-0.5,0.11
				c-0.2,0.029-0.41,0.061-0.62,0.08L751.954,666.535z"/>
		</g>
		<path fill="#85A520" d="M704.662,628.514h-37.983v-15.777c0-3.086,2.799-5.568,6.221-5.616c0.229-0.009,0.47,0,0.709,0.02
			C683.969,607.974,702.534,611.807,704.662,628.514z"/>
		<path fill="#242D38" d="M733.933,704.639h-20.722c-0.01-6.795-0.028-11.875-0.028-11.875
			C719.69,693.291,730.885,695.533,733.933,704.639z"/>
	</g>
	<path fill="#242D38" d="M700.297,628.514H670.61v-12.33c0-2.412,2.188-4.352,4.862-4.39c0.18-0.007,0.366,0,0.554,0.015
		C684.124,612.461,698.633,615.457,700.297,628.514z"/>
	<g>
		<g>
			<path fill="#912626" d="M740.235,718.078c0,0,0,2.66,0,5.91s2.659,5.91,5.91,5.91c3.25,0,5.909-2.66,5.909-5.91s0-5.91,0-5.91"/>
		</g>
		<path fill="#F18930" d="M742.169,718.078c0,0,0.001,2.352,0.001,5.229c0,2.728,2.387,4.984,5.4,5.209
			c0.164,0.014,0.334,0.021,0.504,0.021c0.246,0,0.492-0.014,0.73-0.041c2.911-0.32,5.183-2.53,5.183-5.189l-0.001-3.84
			c0-0.75,0-1.389,0-1.389H742.169z"/>
		<path fill="#DFDDDE" d="M747.577,728.246c-2.326-0.697-4.005-2.654-4.005-4.938c0-2.882,0-5.23,0-5.23h10.416c0,0,0,0.641,0,1.388
			v3.843c0,0.162-0.008,0.334-0.028,0.49c-0.015,0.164-0.043,0.327-0.079,0.484c-0.028,0.142-0.063,0.284-0.106,0.42
			c-0.042,0.135-0.093,0.27-0.149,0.405c-0.028,0.071-0.063,0.142-0.1,0.206c0,0.007,0,0.014-0.007,0.021
			c-0.043,0.1-0.093,0.199-0.149,0.291c-0.071,0.129-0.156,0.264-0.242,0.385c-0.1,0.149-0.213,0.291-0.334,0.434
			c-0.078,0.1-0.171,0.192-0.264,0.285c-0.1,0.106-0.206,0.205-0.313,0.299c-0.114,0.1-0.229,0.191-0.349,0.277
			c-0.021,0.021-0.036,0.035-0.058,0.043c-0.121,0.092-0.248,0.178-0.384,0.256c-0.021,0.014-0.036,0.028-0.057,0.043
			c-0.143,0.085-0.292,0.163-0.448,0.241c-0.079,0.036-0.157,0.071-0.235,0.1c-0.106,0.05-0.214,0.1-0.327,0.136
			c-0.277,0.106-0.563,0.191-0.861,0.256c-0.228,0.05-0.462,0.092-0.704,0.113L747.577,728.246z"/>
		<path fill="#E9F0FF" d="M747.577,728.246c0.143-6.432,3.657-8.232,6.411-8.78v3.843c0,0.162-0.008,0.326-0.028,0.49
			c0,0.05-0.008,0.1-0.021,0.156c-0.015,0.107-0.029,0.214-0.058,0.328c-0.028,0.127-0.057,0.256-0.1,0.384
			c-0.071,0.228-0.156,0.455-0.263,0.669c-0.043,0.1-0.093,0.199-0.149,0.291c-0.164,0.285-0.355,0.563-0.576,0.818
			c-0.078,0.1-0.171,0.199-0.264,0.285c-0.555,0.568-1.238,1.023-2.014,1.33c-0.05,0.028-0.106,0.05-0.156,0.064
			c-0.135,0.057-0.277,0.1-0.42,0.143c-0.113,0.035-0.228,0.063-0.349,0.092c-0.113,0.029-0.234,0.057-0.355,0.078
			c-0.143,0.021-0.292,0.043-0.441,0.057L747.577,728.246z"/>
	</g>
	<g>
		<g>
			<path fill="#912626" d="M792.235,718.078c0,0,0,2.66,0,5.91s2.659,5.91,5.91,5.91c3.25,0,5.909-2.66,5.909-5.91s0-5.91,0-5.91"/>
		</g>
		<path fill="#F18930" d="M794.169,718.078c0,0,0.001,2.352,0.001,5.229c0,2.728,2.387,4.984,5.4,5.209
			c0.164,0.014,0.334,0.021,0.504,0.021c0.246,0,0.492-0.014,0.73-0.041c2.911-0.32,5.183-2.53,5.183-5.189l-0.001-3.84
			c0-0.75,0-1.389,0-1.389H794.169z"/>
		<path fill="#DFDDDE" d="M799.577,728.246c-2.326-0.697-4.005-2.654-4.005-4.938c0-2.882,0-5.23,0-5.23h10.416c0,0,0,0.641,0,1.388
			v3.843c0,0.162-0.008,0.334-0.028,0.49c-0.015,0.164-0.043,0.327-0.079,0.484c-0.028,0.142-0.063,0.284-0.106,0.42
			c-0.042,0.135-0.093,0.27-0.149,0.405c-0.028,0.071-0.063,0.142-0.1,0.206c0,0.007,0,0.014-0.007,0.021
			c-0.043,0.1-0.093,0.199-0.149,0.291c-0.071,0.129-0.156,0.264-0.242,0.385c-0.1,0.149-0.213,0.291-0.334,0.434
			c-0.078,0.1-0.171,0.192-0.264,0.285c-0.1,0.106-0.206,0.205-0.313,0.299c-0.114,0.1-0.229,0.191-0.349,0.277
			c-0.021,0.021-0.036,0.035-0.058,0.043c-0.121,0.092-0.249,0.178-0.384,0.256c-0.021,0.014-0.036,0.028-0.057,0.043
			c-0.143,0.085-0.292,0.163-0.448,0.241c-0.079,0.036-0.157,0.071-0.235,0.1c-0.106,0.05-0.214,0.1-0.327,0.136
			c-0.277,0.106-0.563,0.191-0.861,0.256c-0.228,0.05-0.462,0.092-0.704,0.113L799.577,728.246z"/>
		<path fill="#E9F0FF" d="M799.577,728.246c0.143-6.432,3.657-8.232,6.411-8.78v3.843c0,0.162-0.008,0.326-0.028,0.49
			c0,0.05-0.008,0.1-0.021,0.156c-0.015,0.107-0.029,0.214-0.058,0.328c-0.028,0.127-0.057,0.256-0.1,0.384
			c-0.071,0.228-0.156,0.455-0.263,0.669c-0.043,0.1-0.093,0.199-0.149,0.291c-0.164,0.285-0.355,0.563-0.576,0.818
			c-0.078,0.1-0.171,0.199-0.264,0.285c-0.555,0.568-1.238,1.023-2.014,1.33c-0.05,0.028-0.106,0.05-0.156,0.064
			c-0.135,0.057-0.277,0.1-0.42,0.143c-0.113,0.035-0.228,0.063-0.349,0.092c-0.113,0.029-0.234,0.057-0.355,0.078
			c-0.143,0.021-0.292,0.043-0.441,0.057L799.577,728.246z"/>
	</g>
	<path fill="#912626" d="M713.039,731.819c0,10.5-0.875,21.625,12.75,21.625h-23.25l7.625-11.125L713.039,731.819z"/>
</g>
<path fill="#FFFFFF" d="M688.512,670.284c-0.986-0.438-2.148-0.287-2.736,0.718c-0.499,0.852-0.275,2.296,0.718,2.736
	c1.179,0.522,2.095,1.503,2.182,2.816c0.071,1.078,0.868,2,2,2c1.027,0,2.072-0.916,2-2
	C692.499,673.896,691,671.389,688.512,670.284z"/>
<path fill="#85A520" d="M704.904,643.533c0-0.217-0.014-0.41-0.04-0.581V631.93c0-1.131-0.069-2.221-0.2-3.25
	c-1.545-12.124-11.738-17.465-21.178-19.802h-3.334c-0.285,0-0.564,0.022-0.84,0.054c9.384,2.362,19.442,7.71,20.977,19.748
	c0.131,1.029,0.2,2.119,0.2,3.25v11.022c0.026,0.171,0.04,0.364,0.04,0.581c0,5.729,2.338,8.305,6.245,9.033h8.184
	C709.958,652.053,704.904,649.262,704.904,643.533z"/>
</svg>
